<mxfile host="65bd71144e">
    <diagram id="Bl7pLO4Amx4-Vwqpgp-S" name="Page-1">
        <mxGraphModel dx="864" dy="636" grid="0" gridSize="10" guides="1" tooltips="1" connect="1" arrows="1" fold="1" page="1" pageScale="1" pageWidth="850" pageHeight="1100" background="#112A53" math="0" shadow="0">
            <root>
                <mxCell id="0"/>
                <mxCell id="1" parent="0"/>
                <mxCell id="6" value="Início" style="html=1;whiteSpace=wrap;strokeColor=none;fillColor=#0D6EFD;labelPosition=center;verticalLabelPosition=middle;verticalAlign=top;align=center;fontSize=12;outlineConnect=0;spacingTop=-6;fontColor=#FFFFFF;sketch=0;shape=mxgraph.sitemap.home;" parent="1" vertex="1">
                    <mxGeometry x="350" y="200" width="130" height="80" as="geometry"/>
                </mxCell>
                <mxCell id="8" value="Contato" style="html=1;whiteSpace=wrap;strokeColor=none;fillColor=#0D6EFD;labelPosition=center;verticalLabelPosition=middle;verticalAlign=top;align=center;fontSize=12;outlineConnect=0;spacingTop=-6;fontColor=#FFFFFF;sketch=0;shape=mxgraph.sitemap.contact;" parent="1" vertex="1">
                    <mxGeometry x="270" y="360" width="130" height="80" as="geometry"/>
                </mxCell>
                <mxCell id="10" value="Sobre" style="html=1;whiteSpace=wrap;strokeColor=none;fillColor=#0D6EFD;labelPosition=center;verticalLabelPosition=middle;verticalAlign=top;align=center;fontSize=12;outlineConnect=0;spacingTop=-6;fontColor=#FFFFFF;sketch=0;shape=mxgraph.sitemap.info;" parent="1" vertex="1">
                    <mxGeometry x="100" y="360" width="130" height="80" as="geometry"/>
                </mxCell>
                <mxCell id="12" value="Sitemap" style="html=1;whiteSpace=wrap;strokeColor=none;fillColor=#0D6EFD;labelPosition=center;verticalLabelPosition=middle;verticalAlign=top;align=center;fontSize=12;outlineConnect=0;spacingTop=-6;fontColor=#FFFFFF;sketch=0;shape=mxgraph.sitemap.sitemap;" parent="1" vertex="1">
                    <mxGeometry x="610" y="360" width="130" height="80" as="geometry"/>
                </mxCell>
                <mxCell id="13" value="Entrar / Cadastrar" style="html=1;whiteSpace=wrap;strokeColor=none;fillColor=#0D6EFD;labelPosition=center;verticalLabelPosition=middle;verticalAlign=top;align=center;fontSize=12;outlineConnect=0;spacingTop=-6;fontColor=#FFFFFF;sketch=0;shape=mxgraph.sitemap.form;" parent="1" vertex="1">
                    <mxGeometry x="440" y="360" width="130" height="80" as="geometry"/>
                </mxCell>
                <mxCell id="14" value="Cadastro Concluído" style="html=1;whiteSpace=wrap;strokeColor=none;fillColor=#0D6EFD;labelPosition=center;verticalLabelPosition=middle;verticalAlign=top;align=center;fontSize=12;outlineConnect=0;spacingTop=-6;fontColor=#FFFFFF;sketch=0;shape=mxgraph.sitemap.success;" parent="1" vertex="1">
                    <mxGeometry x="440" y="480" width="130" height="80" as="geometry"/>
                </mxCell>
                <mxCell id="17" value="" style="endArrow=none;html=1;strokeWidth=4;strokeColor=#FFFFFF;" parent="1" edge="1">
                    <mxGeometry width="50" height="50" relative="1" as="geometry">
                        <mxPoint x="158" y="320" as="sourcePoint"/>
                        <mxPoint x="682" y="320" as="targetPoint"/>
                    </mxGeometry>
                </mxCell>
                <mxCell id="18" value="" style="endArrow=none;html=1;entryX=0.5;entryY=1;entryDx=0;entryDy=0;entryPerimeter=0;strokeColor=#FFFFFF;strokeWidth=4;" parent="1" target="6" edge="1">
                    <mxGeometry width="50" height="50" relative="1" as="geometry">
                        <mxPoint x="415" y="320" as="sourcePoint"/>
                        <mxPoint x="460" y="400" as="targetPoint"/>
                    </mxGeometry>
                </mxCell>
                <mxCell id="19" value="" style="endArrow=none;html=1;strokeColor=#FFFFFF;strokeWidth=4;" parent="1" edge="1">
                    <mxGeometry width="50" height="50" relative="1" as="geometry">
                        <mxPoint x="160" y="360" as="sourcePoint"/>
                        <mxPoint x="160" y="320" as="targetPoint"/>
                    </mxGeometry>
                </mxCell>
                <mxCell id="20" value="" style="endArrow=none;html=1;strokeColor=#FFFFFF;strokeWidth=4;" parent="1" edge="1">
                    <mxGeometry width="50" height="50" relative="1" as="geometry">
                        <mxPoint x="334.71000000000004" y="360" as="sourcePoint"/>
                        <mxPoint x="334.71000000000004" y="320" as="targetPoint"/>
                    </mxGeometry>
                </mxCell>
                <mxCell id="21" value="" style="endArrow=none;html=1;strokeColor=#FFFFFF;strokeWidth=4;" parent="1" edge="1">
                    <mxGeometry width="50" height="50" relative="1" as="geometry">
                        <mxPoint x="504.71" y="360" as="sourcePoint"/>
                        <mxPoint x="504.71" y="320" as="targetPoint"/>
                    </mxGeometry>
                </mxCell>
                <mxCell id="22" value="" style="endArrow=none;html=1;strokeColor=#FFFFFF;strokeWidth=4;" parent="1" edge="1">
                    <mxGeometry width="50" height="50" relative="1" as="geometry">
                        <mxPoint x="680" y="360" as="sourcePoint"/>
                        <mxPoint x="680" y="320" as="targetPoint"/>
                    </mxGeometry>
                </mxCell>
                <mxCell id="23" value="" style="endArrow=none;html=1;strokeColor=#FFFFFF;strokeWidth=4;" parent="1" edge="1">
                    <mxGeometry width="50" height="50" relative="1" as="geometry">
                        <mxPoint x="504.71" y="480" as="sourcePoint"/>
                        <mxPoint x="504.71" y="440" as="targetPoint"/>
                    </mxGeometry>
                </mxCell>
            </root>
        </mxGraphModel>
    </diagram>
</mxfile>